<?xml version="1.0" encoding="UTF-8" standalone="no"?>
<svg
   xmlns:dc="http://purl.org/dc/elements/1.1/"
   xmlns:cc="http://creativecommons.org/ns#"
   xmlns:rdf="http://www.w3.org/1999/02/22-rdf-syntax-ns#"
   xmlns:svg="http://www.w3.org/2000/svg"
   xmlns="http://www.w3.org/2000/svg"
   xmlns:xlink="http://www.w3.org/1999/xlink"
   xmlns:sodipodi="http://sodipodi.sourceforge.net/DTD/sodipodi-0.dtd"
   xmlns:inkscape="http://www.inkscape.org/namespaces/inkscape"
   version="1.1"
   width="24"
   height="24"
   id="svg4389"
   inkscape:version="0.91 r13725"
   sodipodi:docname="jstexture-new-renderer.svg">
  <sodipodi:namedview
     pagecolor="#ffffff"
     bordercolor="#666666"
     borderopacity="1"
     objecttolerance="10"
     gridtolerance="10"
     guidetolerance="10"
     inkscape:pageopacity="0"
     inkscape:pageshadow="2"
     inkscape:window-width="1280"
     inkscape:window-height="940"
     id="namedview101"
     showgrid="false"
     showguides="false"
     inkscape:zoom="19.666667"
     inkscape:cx="1.0124164"
     inkscape:cy="10.376737"
     inkscape:window-x="-8"
     inkscape:window-y="-8"
     inkscape:window-maximized="1"
     inkscape:current-layer="svg4389" />
  <defs
     id="defs4391">
    <linearGradient
       id="linearGradient8775">
      <stop
         offset="0"
         id="stop8777" />
      <stop
         offset="1"
         stop-opacity="0"
         id="stop8779" />
    </linearGradient>
    <radialGradient
       r="2.5"
       gradientTransform="matrix(2.0038 0 0 1.4 27.988 -17.4)"
       cx="4.993"
       cy="43.5"
       gradientUnits="userSpaceOnUse"
       id="radialGradient3013">
      <stop
         offset="0"
         stop-color="#181818"
         id="stop2883" />
      <stop
         offset="1"
         stop-opacity="0"
         stop-color="#181818"
         id="stop2885" />
    </radialGradient>
    <radialGradient
       r="2.5"
       gradientTransform="matrix(-1.7273 9.3333e-8 -2.3318e-8 -1.4 19.4 104.4)"
       cx="5.3367"
       cy="43.5"
       gradientUnits="userSpaceOnUse"
       id="radialGradient3015">
      <stop
         offset="0"
         stop-color="#181818"
         id="stop2889" />
      <stop
         offset="1"
         stop-opacity="0"
         stop-color="#181818"
         id="stop2891" />
    </radialGradient>
    <linearGradient
       x1="25.058"
       y1="47.028"
       x2="25.058"
       gradientUnits="userSpaceOnUse"
       y2="39.999"
       id="linearGradient4387">
      <stop
         offset="0"
         stop-opacity="0"
         stop-color="#181818"
         id="stop2895" />
      <stop
         offset=".5"
         stop-color="#181818"
         id="stop2897" />
      <stop
         offset="1"
         stop-opacity="0"
         stop-color="#181818"
         id="stop2899" />
    </linearGradient>
    <linearGradient
       x1="-95.838"
       y1="54.2"
       gradientTransform="matrix(.39392 0 0 .38262 52.417 1.046)"
       x2="-95.838"
       gradientUnits="userSpaceOnUse"
       y2="5.1758"
       id="linearGradient3847">
      <stop
         offset="0"
         stop-opacity=".32174"
         id="stop3106-5-4-3-5-0-1-61-9-2-7-3-3" />
      <stop
         offset="1"
         stop-opacity=".27826"
         id="stop3108-4-3-7-8-2-4-01-9-9-0-6-4" />
    </linearGradient>
    <linearGradient
       x1="24"
       y1="5"
       gradientTransform="matrix(.48649 0 0 .45946 -.17568 .97298)"
       x2="24"
       gradientUnits="userSpaceOnUse"
       y2="43"
       id="linearGradient3850">
      <stop
         offset="0"
         stop-color="#fff"
         id="stop3926-3" />
      <stop
         offset=".063165"
         stop-opacity=".23529"
         stop-color="#fff"
         id="stop3928-91" />
      <stop
         offset=".95056"
         stop-opacity=".15686"
         stop-color="#fff"
         id="stop3930-6" />
      <stop
         offset="1"
         stop-opacity=".39216"
         stop-color="#fff"
         id="stop3932-6" />
    </linearGradient>
    <linearGradient
       x1="633.14"
       y1="225.3"
       gradientTransform="matrix(1.5146 0 0 1.4729 -942.73 -318.48)"
       x2="633.14"
       gradientUnits="userSpaceOnUse"
       y2="230.46"
       id="linearGradient6572-9-1">
      <stop
         offset="0"
         stop-color="#fff"
         id="stop6094" />
      <stop
         offset=".14286"
         stop-opacity=".23529"
         stop-color="#fff"
         id="stop6096" />
      <stop
         offset=".85714"
         stop-opacity=".15686"
         stop-color="#fff"
         id="stop6098" />
      <stop
         offset="1"
         stop-opacity=".39216"
         stop-color="#fff"
         id="stop6100" />
    </linearGradient>
    <linearGradient
       x1="8"
       y1="15"
       gradientTransform="matrix(1.8163 0 0 1.6784 1.694 -2.9511)"
       x2="8"
       gradientUnits="userSpaceOnUse"
       y2="10"
       id="linearGradient5610-3-8">
      <stop
         offset="0"
         stop-color="#ae6a37"
         id="stop5606-8-2" />
      <stop
         offset="1"
         stop-color="#d28e5b"
         id="stop5608-5-0" />
    </linearGradient>
    <linearGradient
       x1="9"
       y1="10"
       gradientTransform="matrix(1.8163 0 0 1.6784 1.694 -2.9511)"
       x2="9"
       gradientUnits="userSpaceOnUse"
       y2="15"
       id="linearGradient5618-5-7">
      <stop
         offset="0"
         stop-opacity=".625"
         stop-color="#492714"
         id="stop5614-2-5" />
      <stop
         offset="1"
         stop-opacity=".76953"
         stop-color="#6a3f1f"
         id="stop5616-0-2" />
    </linearGradient>
    <linearGradient
       x1="11"
       y1="34"
       gradientTransform="matrix(0 .36364 -.38462 0 21.064 9.736)"
       x2="23"
       gradientUnits="userSpaceOnUse"
       y2="34"
       id="linearGradient8537">
      <stop
         offset="0"
         stop-color="#fff"
         id="stop3926-9-4-9-6" />
      <stop
         offset=".15625"
         stop-opacity=".23529"
         stop-color="#fff"
         id="stop3928-9-8-6-5" />
      <stop
         offset=".84375"
         stop-opacity=".15686"
         stop-color="#fff"
         id="stop3930-3-5-1-7" />
      <stop
         offset="1"
         stop-opacity=".39216"
         stop-color="#fff"
         id="stop3932-8-0-4-8" />
    </linearGradient>
    <linearGradient
       x1="9"
       y1="21"
       gradientTransform="matrix(.33333 0 0 .33333 .66667 1.6667)"
       x2="9"
       gradientUnits="userSpaceOnUse"
       y2="18"
       id="linearGradient8430">
      <stop
         offset="0"
         stop-color="#fff"
         id="stop8426" />
      <stop
         offset="1"
         stop-opacity="0"
         stop-color="#fff"
         id="stop8428" />
    </linearGradient>
    <radialGradient
       r="4.5"
       gradientTransform="matrix(1 0 0 .66667 0 6.6667)"
       cx="12.5"
       cy="20"
       gradientUnits="userSpaceOnUse"
       xlink:href="#linearGradient8775"
       id="radialGradient8781" />
    <radialGradient
       r="4.5"
       gradientTransform="matrix(.83333 0 0 .55556 2.3333 8.3889)"
       cx="12.5"
       cy="20"
       gradientUnits="userSpaceOnUse"
       xlink:href="#linearGradient8775"
       id="radialGradient8785" />
    <radialGradient
       r="4.5"
       gradientTransform="matrix(1 0 0 .66667 8 6.6667)"
       cx="12.5"
       cy="20"
       gradientUnits="userSpaceOnUse"
       xlink:href="#linearGradient8775"
       id="radialGradient8797" />
    <radialGradient
       r="4.5"
       gradientTransform="matrix(.83333 0 0 .55556 10.333 8.3889)"
       cx="12.5"
       cy="20"
       gradientUnits="userSpaceOnUse"
       xlink:href="#linearGradient8775"
       id="radialGradient8799" />
    <radialGradient
       r="4.5"
       gradientTransform="matrix(1 0 0 .66667 16 6.6667)"
       cx="12.5"
       cy="20"
       gradientUnits="userSpaceOnUse"
       xlink:href="#linearGradient8775"
       id="radialGradient8807" />
    <radialGradient
       r="4.5"
       gradientTransform="matrix(.83333 0 0 .55556 18.333 8.3889)"
       cx="12.5"
       cy="20"
       gradientUnits="userSpaceOnUse"
       xlink:href="#linearGradient8775"
       id="radialGradient8809" />
    <radialGradient
       r="4.5"
       gradientTransform="matrix(1 0 0 .66667 24 6.6667)"
       cx="12.5"
       cy="20"
       gradientUnits="userSpaceOnUse"
       xlink:href="#linearGradient8775"
       id="radialGradient8817" />
    <radialGradient
       r="4.5"
       gradientTransform="matrix(.83333 0 0 .55556 26.333 8.3889)"
       cx="12.5"
       cy="20"
       gradientUnits="userSpaceOnUse"
       xlink:href="#linearGradient8775"
       id="radialGradient8819" />
    <linearGradient
       x1="20"
       y1="27"
       gradientTransform="matrix(.46667 0 0 .46154 .053266 .68706)"
       x2="20"
       gradientUnits="userSpaceOnUse"
       y2="38"
       id="linearGradient8827">
      <stop
         offset="0"
         stop-color="#6db0de"
         id="stop8823" />
      <stop
         offset="1"
         stop-color="#a4cae4"
         id="stop8825" />
    </linearGradient>
    <radialGradient
       r="9.6308"
       gradientTransform="matrix(-1.869 1.0459e-7 -1.2202e-7 -2.1805 34.428 20.668)"
       cx="12"
       cy="6.2683"
       gradientUnits="userSpaceOnUse"
       id="radialGradient18966">
      <stop
         offset="0"
         stop-color="#fafafa"
         id="stop4634-68-8-0-2-9-1" />
      <stop
         offset="1"
         stop-color="#e1e1e1"
         id="stop4636-8-21-7-1-4-9" />
    </radialGradient>
    <linearGradient
       xlink:href="#linearGradient4574-39-1"
       id="linearGradient3277"
       gradientUnits="userSpaceOnUse"
       gradientTransform="matrix(0.07502968,0,0,0.07558974,3.9430809,7.4937799)"
       x1="-184.92441"
       y1="113.97943"
       x2="-175.25337"
       y2="88.801025" />
    <linearGradient
       id="linearGradient4574-39-1">
      <stop
         id="stop4576-75-8"
         style="stop-color:#7a0f01;stop-opacity:1"
         offset="0" />
      <stop
         id="stop4578-96-3"
         style="stop-color:#d31807;stop-opacity:1"
         offset="1" />
    </linearGradient>
    <linearGradient
       xlink:href="#linearGradient4470-86-9"
       id="linearGradient3281"
       gradientUnits="userSpaceOnUse"
       x1="-211.28862"
       y1="88.750069"
       x2="-208.49672"
       y2="75.190559"
       gradientTransform="matrix(0.07511055,0.00586778,-0.00619394,0.07150456,7.0782029,9.1825456)" />
    <linearGradient
       id="linearGradient4470-86-9">
      <stop
         id="stop4472-0-4"
         style="stop-color:#ec4502;stop-opacity:1"
         offset="0" />
      <stop
         id="stop4474-9-9"
         style="stop-color:#fe7617;stop-opacity:1"
         offset="1" />
    </linearGradient>
    <linearGradient
       xlink:href="#linearGradient3871-6-7"
       id="linearGradient3289"
       gradientUnits="userSpaceOnUse"
       gradientTransform="matrix(0.11183314,0,0,0.11948791,9.1249199,7.2493047)"
       x1="-107.45584"
       y1="-37.385227"
       x2="-107.45584"
       y2="38.561256" />
    <linearGradient
       id="linearGradient3871-6-7">
      <stop
         id="stop3873-3-2"
         style="stop-color:#0b85e9;stop-opacity:1"
         offset="0" />
      <stop
         id="stop3875-4-0"
         style="stop-color:#69d1ef;stop-opacity:1"
         offset="1" />
    </linearGradient>
    <linearGradient
       xlink:href="#linearGradient3825-5-8-9"
       id="linearGradient3294"
       gradientUnits="userSpaceOnUse"
       gradientTransform="matrix(0.11183314,0,0,0.11095306,9.1249199,7.0693532)"
       x1="-96.557358"
       y1="110.92493"
       x2="-96.557358"
       y2="39.991924" />
    <linearGradient
       id="linearGradient3825-5-8-9">
      <stop
         id="stop3827-2-3-55"
         style="stop-color:#e89c42;stop-opacity:1"
         offset="0" />
      <stop
         id="stop3829-5-0-1"
         style="stop-color:#faca67;stop-opacity:1"
         offset="1" />
    </linearGradient>
    <linearGradient
       xlink:href="#linearGradient3977-7-61"
       id="linearGradient3297"
       gradientUnits="userSpaceOnUse"
       gradientTransform="matrix(0.48648651,0,0,0.37837838,-17.102359,2.0547099)"
       x1="23.99999"
       y1="5.5641499"
       x2="23.99999"
       y2="43" />
    <linearGradient
       id="linearGradient3977-7-61">
      <stop
         id="stop3979-6-49"
         style="stop-color:#ffffff;stop-opacity:1"
         offset="0" />
      <stop
         id="stop3981-3-78"
         style="stop-color:#ffffff;stop-opacity:0.23529412"
         offset="0.03626217" />
      <stop
         id="stop3983-8-86"
         style="stop-color:#ffffff;stop-opacity:0.15686275"
         offset="0.95056331" />
      <stop
         id="stop3985-2-07"
         style="stop-color:#ffffff;stop-opacity:0.39215687"
         offset="1" />
    </linearGradient>
    <linearGradient
       xlink:href="#linearGradient3600-9-51"
       id="linearGradient3300"
       gradientUnits="userSpaceOnUse"
       gradientTransform="matrix(0.54285589,0,0,0.3259251,-18.455229,2.8135767)"
       x1="25.132275"
       y1="0.98520643"
       x2="25.132275"
       y2="47.013336" />
    <linearGradient
       id="linearGradient3600-9-51">
      <stop
         id="stop3602-0-0"
         style="stop-color:#f4f4f4;stop-opacity:1"
         offset="0" />
      <stop
         id="stop3604-9-04"
         style="stop-color:#dbdbdb;stop-opacity:1"
         offset="1" />
    </linearGradient>
    <linearGradient
       xlink:href="#linearGradient8775"
       id="linearGradient3303"
       gradientUnits="userSpaceOnUse"
       gradientTransform="matrix(0.48625742,2.7191503e-4,9.9659804e-5,0.34755305,41.933145,0.87795028)"
       x1="-76.834877"
       y1="6.6805849"
       x2="-76.844345"
       y2="52.887863" />
    <linearGradient
       xlink:href="#linearGradient8775"
       id="linearGradient4202"
       gradientUnits="userSpaceOnUse"
       gradientTransform="matrix(0.47467232,0.10551084,-0.07512695,0.33933623,60.451903,11.735858)"
       x1="-76.834877"
       y1="6.6805849"
       x2="-76.844345"
       y2="52.887863" />
    <linearGradient
       xlink:href="#linearGradient3600-9-51"
       id="linearGradient4204"
       gradientUnits="userSpaceOnUse"
       gradientTransform="matrix(0.52998804,0.11749552,-0.0705431,0.31819937,1.0760283,0.555165)"
       x1="25.132275"
       y1="0.98520643"
       x2="25.132275"
       y2="47.013336" />
    <linearGradient
       xlink:href="#linearGradient3977-7-61"
       id="linearGradient4206"
       gradientUnits="userSpaceOnUse"
       gradientTransform="matrix(0.47495484,0.10529495,-0.08189607,0.3694093,2.5610785,0.107101)"
       x1="23.99999"
       y1="5.5641499"
       x2="23.99999"
       y2="43" />
  </defs>
  <metadata
     id="metadata4394">
    <rdf:RDF>
      <cc:Work
         rdf:about="">
        <dc:format>image/svg+xml</dc:format>
        <dc:type
           rdf:resource="http://purl.org/dc/dcmitype/StillImage" />
        <dc:title></dc:title>
      </cc:Work>
    </rdf:RDF>
  </metadata>
  <g
     id="g5343"
     transform="matrix(0.79082222,0,0,0.75925434,15.519139,6.4729223)">
    <g
       transform="translate(-16.926688,-1.8389823)"
       id="g4195">
      <path
         d="M 20.025957,21.47481 0.49996093,17.146002 3.9630117,1.525189 23.489008,5.853998 Z"
         id="path4151"
         style="color:#000000;display:inline;overflow:visible;visibility:visible;fill:none;stroke:url(#linearGradient4202);stroke-width:0.99992186;stroke-linecap:butt;stroke-linejoin:round;stroke-miterlimit:4;stroke-dasharray:none;stroke-dashoffset:0;stroke-opacity:1;marker:none;enable-background:accumulate"
         inkscape:connector-curvature="0" />
      <path
         d="M 4.3429706,2.121603 C 8.5936307,3.063951 22.892369,6.234865 22.892369,6.234865 l -3.246368,14.643531 c 0,0 -12.3664183,-2.741569 -18.5496246,-4.112353 C 2.1785738,11.884566 3.2607712,7.003089 4.3429675,2.121616 Z"
         id="path4153"
         style="display:inline;fill:url(#linearGradient4204);fill-opacity:1;stroke:none"
         inkscape:connector-curvature="0" />
      <path
         d="M 19.266073,20.282028 1.6927442,16.386115 4.7228988,2.717971 22.296228,6.613884 Z"
         id="path4155"
         style="fill:none;stroke:url(#linearGradient4206);stroke-width:1;stroke-linecap:round;stroke-linejoin:miter;stroke-miterlimit:4;stroke-dasharray:none;stroke-dashoffset:0;stroke-opacity:1"
         inkscape:connector-curvature="0" />
      <path
         d="M 5.1028262,3.314337 2.2891113,16.006185 18.886144,19.685659 21.699859,6.993811 Z"
         id="path4157"
         style="color:#000000;display:inline;overflow:visible;visibility:visible;fill:#49bdea;fill-opacity:1;fill-rule:nonzero;stroke:none;stroke-width:10;marker:none;enable-background:accumulate"
         inkscape:connector-curvature="0" />
      <path
         d="M 5.4827526,3.910713 C 9.0622551,4.704269 21.103308,7.37448 21.103308,7.37448 l -2.597092,11.714812 c 0,0 -10.4138244,-2.308689 -15.6207372,-3.463034 C 3.7512374,11.721073 4.6169958,7.81589 5.4827541,3.910706 Z"
         id="path4171"
         style="color:#000000;display:inline;overflow:visible;visibility:visible;fill:none;stroke:#158bb9;stroke-width:0.99999982;stroke-linecap:butt;stroke-linejoin:miter;stroke-miterlimit:4;stroke-dasharray:none;stroke-dashoffset:0;stroke-opacity:1;marker:none;enable-background:accumulate"
         inkscape:connector-curvature="0" />
    </g>
    <path
       d="m 4.5733509,19.135827 -20.0000779,0 0,-16.0000772 20.0000779,0 z"
       id="rect6741-1-2-0-3"
       style="color:#000000;display:inline;overflow:visible;visibility:visible;fill:none;stroke:url(#linearGradient3303);stroke-width:0.99992186;stroke-linecap:butt;stroke-linejoin:round;stroke-miterlimit:4;stroke-dasharray:none;stroke-dashoffset:0;stroke-opacity:1;marker:none;enable-background:accumulate"
       inkscape:connector-curvature="0" />
    <path
       d="m -14.926687,3.6357876 c 4.353864,0 18.9999759,9.375e-4 18.9999759,9.375e-4 l 2.4e-5,14.9990619 c 0,0 -12.6666678,0 -18.9999999,0 0,-4.999997 0,-9.9999934 0,-14.9999853 z"
       id="path4160-9-1"
       style="display:inline;fill:url(#linearGradient3300);fill-opacity:1;stroke:none"
       inkscape:connector-curvature="0" />
    <path
       d="m 3.5733129,18.135787 -17.9999999,0 0,-13.9999994 17.9999999,0 z"
       id="rect6741-1-2-1"
       style="fill:none;stroke:url(#linearGradient3297);stroke-width:1;stroke-linecap:round;stroke-linejoin:miter;stroke-miterlimit:4;stroke-dasharray:none;stroke-dashoffset:0;stroke-opacity:1"
       inkscape:connector-curvature="0" />
    <path
       d="m -13.926688,4.6357871 0,12.9999989 16.9999999,0 0,-12.9999989 z"
       id="rect3055-2-9-1"
       style="color:#000000;display:inline;overflow:visible;visibility:visible;fill:url(#linearGradient3294);fill-opacity:1;fill-rule:nonzero;stroke:none;stroke-width:10;marker:none;enable-background:accumulate"
       inkscape:connector-curvature="0" />
    <path
       d="m -9.8183049,11.998839 c -0.07273,-0.0055 -0.154513,9.6e-5 -0.2369661,0.02791 -0.321842,0.108583 -0.35875,0.322485 -0.387488,0.425147 -0.02873,0.102661 -0.03468,0.182453 -0.03935,0.266639 -0.0093,0.16837 -0.0021,0.345343 0.0059,0.522198 0.0065,0.145267 0.01231,0.274201 0.01515,0.388068 -0.110987,0.02573 -0.2333,0.05337 -0.374156,0.08352 -0.176536,0.03779 -0.355004,0.07562 -0.519611,0.127425 -0.0823,0.02591 -0.159617,0.05205 -0.257844,0.108081 -0.04911,0.02801 -0.105679,0.06133 -0.171903,0.134692 -0.06622,0.07336 -0.146458,0.211318 -0.14189,0.37801 0.0089,0.325417 0.210486,0.423818 0.304315,0.481402 0.09383,0.05758 0.169512,0.08689 0.252282,0.116983 0.165541,0.06019 0.348148,0.108991 0.527557,0.156173 0.147864,0.03889 0.277402,0.07553 0.392392,0.108032 -0.0086,0.108299 -0.02052,0.227991 -0.03388,0.36434 -0.01682,0.171667 -0.03328,0.343048 -0.03241,0.508155 4.36e-4,0.08255 0.0023,0.161276 0.02792,0.267473 0.01279,0.0531 0.03006,0.114011 0.08283,0.196597 0.05276,0.08259 0.163488,0.199626 0.331588,0.246981 0.3275061,0.09226 0.4885531,-0.05824 0.5751621,-0.125296 0.08661,-0.06705 0.139948,-0.129181 0.195682,-0.194736 0.111468,-0.131109 0.21535,-0.280706 0.318099,-0.428356 0.08451,-0.121437 0.159635,-0.228819 0.227664,-0.322673 0.105677,0.04112 0.221967,0.08844 0.354559,0.142659 0.16612,0.06793 0.334191,0.137202 0.49933,0.18713 0.08257,0.02496 0.15975,0.0473 0.273754,0.05676 0.057,0.0047 0.125389,0.0089 0.224101,-0.01344 0.09871,-0.02238 0.247783,-0.0876 0.346922,-0.224925 0.193359,-0.267841 0.09361,-0.462656 0.05331,-0.561792 -0.0403,-0.09913 -0.08453,-0.16528 -0.132836,-0.235875 -0.09661,-0.14119 -0.214817,-0.28105 -0.330592,-0.419343 -0.09508,-0.113567 -0.177277,-0.214454 -0.249953,-0.304715 0.07386,-0.08297 0.156307,-0.173356 0.251541,-0.276592 0.119443,-0.12948 0.239503,-0.25933 0.340618,-0.393436 0.05056,-0.06705 0.09837,-0.131725 0.143176,-0.231999 0.0224,-0.05014 0.04672,-0.109408 0.05498,-0.205728 0.0083,-0.09632 -0.01097,-0.252744 -0.117596,-0.385017 -0.207895,-0.257896 -0.431564,-0.225033 -0.542991,-0.21928 -0.111427,0.0058 -0.192512,0.02499 -0.278081,0.04681 -0.171135,0.04364 -0.348715,0.105044 -0.523034,0.166951 -0.143691,0.05103 -0.269999,0.0958 -0.38314,0.133665 -0.05991,-0.09235 -0.124539,-0.195955 -0.19807,-0.313929 -0.0922,-0.147923 -0.185361,-0.296418 -0.287931,-0.429275 -0.05129,-0.06643 -0.09835,-0.128599 -0.1847,-0.200134 -0.04318,-0.03577 -0.09609,-0.07714 -0.189812,-0.114313 -0.04686,-0.01859 -0.11182,-0.03544 -0.184556,-0.04095 z m 0.840796,1.151171 c 0.0025,-3.58e-4 0.01724,0.0039 0.02057,0.0038 -0.0059,0.0015 -0.02274,0.0061 -0.02613,0.0068 -0.0083,0.0017 -0.01458,-0.0077 0.0056,-0.01062 z m 0.307236,0.09917 c 0.0256,0.02035 0.02393,0.02946 0.01886,0.02358 -0.0023,-0.0027 -0.01429,-0.01772 -0.01886,-0.02358 z m -1.5929121,0.319922 c 0.02066,-0.0093 0.02242,0.0032 0.01577,0.0057 -0.0035,0.0013 -0.0233,0.0062 -0.03094,0.0086 0.003,-0.0018 0.01271,-0.01318 0.01517,-0.01429 z m -0.197561,0.243224 c -3.81e-4,0.0061 4.04e-4,0.02313 2e-5,0.02653 -0.001,0.0091 -0.0092,0.0022 -2e-5,-0.02653 z m 2.6127191,0.480456 c -0.0047,-0.0078 0.0064,-0.0064 0.01674,0.02121 -0.0035,-0.0052 -0.01495,-0.01826 -0.01674,-0.02121 z m 0.008,0.31013 c -0.01235,0.02884 -0.02274,0.03152 -0.01843,0.02509 0.002,-0.003 0.01389,-0.01901 0.01843,-0.02509 z m -2.6006751,0.506486 c 2.13e-4,0.0035 -4.28e-4,0.02329 -3.61e-4,0.03092 -0.008,-0.03061 -1.22e-4,-0.03857 3.61e-4,-0.03092 z m 0.174189,0.267846 c 0.0056,0.0021 0.02168,0.0073 0.0248,0.0086 0.0088,0.0037 0.0012,0.0086 -0.0248,-0.0086 z m 1.6399801,0.289504 c 0.0065,-0.0069 0.0075,0.0045 -0.01824,0.02289 0.0046,-0.0053 0.01564,-0.02015 0.01824,-0.02289 z m -0.338006,0.09519 c 0.0038,9.19e-4 0.02335,0.0089 0.03153,0.01131 -0.03279,-0.0022 -0.03929,-0.01322 -0.03153,-0.01131 z"
       id="path5297"
       style="color:#000000;display:inline;overflow:visible;visibility:visible;opacity:0.05;fill:#000000;fill-opacity:1;fill-rule:nonzero;stroke:none;stroke-width:44.37043762;marker:none;enable-background:accumulate"
       inkscape:connector-curvature="0" />
    <path
       d="m -13.926688,4.6354602 0,7.7637178 c 0.379714,0.107869 0.872114,0.196069 1.45852,0.196069 1.49515,0 1.281828,-0.536609 2.5693231,-0.536609 1.287486,0 2.045837,0.877149 3.786363,0.877149 2.155845,0 2.650569,-1.413759 4.3562498,-1.413759 1.33188796,0 1.43188596,0.773956 2.897725,0.773956 0.990241,0 1.319101,-0.406589 1.931819,-0.670762 l 0,-6.9897618 z"
       id="rect3055-2-6-9-0-6"
       style="color:#000000;display:inline;overflow:visible;visibility:visible;opacity:0.07000002;fill:#000000;fill-opacity:1;fill-rule:nonzero;stroke:none;stroke-width:10;marker:none;enable-background:accumulate"
       inkscape:connector-curvature="0" />
    <path
       d="m -13.926688,4.6285412 0,7.1444698 c 0.252426,0.124353 0.572074,0.237347 0.917613,0.237347 0.789107,0 1.560808,-0.681081 2.878407,-0.681081 1.3176041,0 2.3086091,0.856511 3.9698871,0.856511 1.661278,0 2.035169,-1.238329 4.1534118,-1.238329 2.11823696,0 1.91905396,0.784275 3.245451,0.784275 0.913651,0 1.303838,-0.34092 1.83523,-0.557248 l 0,-6.5459448 z"
       id="path3867-3-5-3"
       style="fill:url(#linearGradient3289);fill-opacity:1;stroke:none"
       inkscape:connector-curvature="0" />
    <path
       d="m -2.0073691,9.4424234 c -1.1127678,0 -1.8127388,0.336631 -2.3857988,0.6501226 -0.573056,0.313491 -1.00538,0.588206 -1.767613,0.588206 -0.783322,0 -1.40242,-0.199955 -2.01875,-0.412776 -0.616326,-0.212822 -1.23268,-0.4437346 -1.9511371,-0.4437346 -0.706237,0 -1.274028,0.1774756 -1.738633,0.3508596 -0.46461,0.173384 -0.824429,0.330221 -1.139774,0.330221 -0.28552,0 -0.563838,-0.104285 -0.792044,-0.216707 a 0.29415704,0.31426635 0 0 0 -0.125569,-0.03096 l 0,1.351843 c 0.391132,0.104566 0.881785,0.185749 1.45852,0.185749 0.780512,0 1.177609,-0.152178 1.477843,-0.288944 0.300234,-0.136765 0.485983,-0.247665 1.0914801,-0.247665 0.581221,0 1.048758,0.20154 1.622726,0.423095 0.573962,0.221556 1.247124,0.454055 2.163637,0.454055 1.138098,0 1.878958,-0.385644 2.492044,-0.742998 0.613086,-0.357354 1.087424,-0.670762 1.8642058,-0.670762 0.612614,0 0.89718896,0.166095 1.27499996,0.36118 0.377801,0.195085 0.841349,0.412776 1.62272504,0.412776 0.995062,0 1.431212,-0.394433 1.931819,-0.639803 l 0,-1.1867326 a 0.29415704,0.31426635 0 0 0 -0.10625,0.02064 c -0.582708,0.237219 -0.883811,0.5366096 -1.72898,0.5366096 -0.60894004,0 -0.79898604,-0.155864 -1.19772604,-0.3611796 -0.398744,-0.205315 -0.95463,-0.423096 -2.04772496,-0.423096 z"
       id="path4213-1-6"
       style="color:#000000;display:inline;overflow:visible;visibility:visible;opacity:0.1;fill:#ffffff;fill-opacity:1;fill-rule:nonzero;stroke:none;stroke-width:10;marker:none;enable-background:accumulate"
       inkscape:connector-curvature="0" />
    <path
       d="m -2.0073691,10.061586 c -2.1182428,0 -2.4921338,1.238329 -4.1534118,1.238329 -1.661278,0 -2.652283,-0.856511 -3.9698871,-0.856511 -1.317599,0 -2.0893,0.681081 -2.878407,0.681081 -0.345539,0 -0.665187,-0.112993 -0.917613,-0.237346 l 0,0.712039 c 0.379714,0.107869 0.872114,0.196069 1.45852,0.196069 1.49515,0 1.281828,-0.536609 2.5693231,-0.536609 1.287486,0 2.045837,0.87715 3.786363,0.87715 2.155845,0 2.650569,-1.41376 4.3562498,-1.41376 1.33188796,0 1.43188596,0.773956 2.897725,0.773956 0.990241,0 1.319101,-0.406588 1.931819,-0.670761 l 0,-0.53661 c -0.531392,0.216329 -0.921579,0.557248 -1.83523,0.557248 -1.32639704,0 -1.12721404,-0.784275 -3.245451,-0.784275 z"
       id="rect3055-2-6-94-0-7"
       style="color:#000000;display:inline;overflow:visible;visibility:visible;opacity:0.3;fill:#ffffff;fill-opacity:1;fill-rule:nonzero;stroke:none;stroke-width:10;marker:none;enable-background:accumulate"
       inkscape:connector-curvature="0" />
    <path
       d="m -2.0073691,10.561587 c -2.1182428,0 -2.4921338,1.238329 -4.1534118,1.238329 -1.661278,0 -2.652283,-0.856511 -3.9698871,-0.856511 -1.317599,0 -2.0893,0.681081 -2.878407,0.681081 -0.345539,0 -0.665187,-0.112993 -0.917613,-0.237346 l 0,0.712039 c 0.379714,0.107868 0.872114,0.196069 1.45852,0.196069 1.49515,0 1.281828,-0.536609 2.5693231,-0.536609 1.287486,0 2.045837,0.877149 3.786363,0.877149 2.155845,0 2.650569,-1.413758 4.3562498,-1.413758 1.33188796,0 1.43188596,0.773955 2.897725,0.773955 0.990241,0 1.319101,-0.406588 1.931819,-0.670761 l 0,-0.53661 c -0.531392,0.216329 -0.921579,0.557248 -1.83523,0.557248 -1.32639704,0 -1.12721404,-0.784275 -3.245451,-0.784275 z"
       id="rect3055-2-6-8-5"
       style="color:#000000;display:inline;overflow:visible;visibility:visible;fill:#ffffff;fill-opacity:1;fill-rule:nonzero;stroke:none;stroke-width:10;marker:none;enable-background:accumulate"
       inkscape:connector-curvature="0" />
    <path
       d="m -13.426688,5.1357942 c 3.6664111,0 15.9999819,7.556e-4 15.9999819,7.556e-4 l 1.8e-5,11.9992372 c 0,0 -10.6666658,0 -15.9999999,0 0,-4.000001 0,-7.9999994 0,-11.999999 z"
       id="path4160-62-8"
       style="color:#000000;display:inline;overflow:visible;visibility:visible;opacity:0.3;fill:none;stroke:#000000;stroke-width:0.99999982;stroke-linecap:butt;stroke-linejoin:miter;stroke-miterlimit:4;stroke-dasharray:none;stroke-dashoffset:0;stroke-opacity:1;marker:none;enable-background:accumulate"
       inkscape:connector-curvature="0" />
    <path
       d="m -9.9564469,12.481132 c -0.1801071,0.06076 0.03013,1.367687 -0.08388,1.513688 -0.110071,0.140971 -1.464343,0.283889 -1.459533,0.459442 0.005,0.181816 1.378004,0.393059 1.488595,0.54133 0.1067827,0.143163 -0.169094,1.414799 0.0078,1.464626 0.1831857,0.0516 0.8197987,-1.124468 1.0021467,-1.178833 0.176065,-0.05249 1.359561,0.587471 1.464066,0.442713 0.108232,-0.149924 -0.870192,-1.086848 -0.868087,-1.268718 0.002,-0.175604 1.009037,-1.050022 0.89675,-1.189314 -0.116292,-0.144262 -1.357732,0.450569 -1.538778,0.392531 -0.174809,-0.05604 -0.735162,-1.236135 -0.909063,-1.177465 z"
       id="path5640-3"
       style="color:#000000;display:inline;overflow:visible;visibility:visible;opacity:0.15;fill:#000000;fill-opacity:1;fill-rule:nonzero;stroke:none;stroke-width:44.37043762;marker:none;enable-background:accumulate"
       inkscape:connector-curvature="0" />
    <path
       d="m -9.9048579,12.140577 c 0.173961,-0.05869 0.736116,1.123036 0.910985,1.179094 0.181107,0.05806 1.421813,-0.538302 1.538145,-0.39399 0.112325,0.139339 -0.894777,1.013919 -0.896811,1.189583 -0.0021,0.181932 0.976613,1.120715 0.868343,1.270688 -0.104539,0.144807 -1.289118,-0.496399 -1.465243,-0.44389 -0.182409,0.05438 -0.818233,1.230941 -1.001481,1.179319 -0.1769341,-0.04984 0.09806,-1.320712 -0.0088,-1.463924 -0.1106271,-0.148321 -1.4823081,-0.359951 -1.4872911,-0.541829 -0.0048,-0.175612 1.349724,-0.319845 1.4598321,-0.460864 0.114036,-0.14605 -0.09788,-1.453403 0.08228,-1.514187 z"
       id="path4468-6"
       style="color:#000000;display:inline;overflow:visible;visibility:visible;fill:url(#linearGradient3281);fill-opacity:1;stroke:none;stroke-width:10;marker:none;enable-background:accumulate"
       inkscape:connector-curvature="0" />
    <path
       d="m -9.8873749,12.106384 -0.04821,0.04636 c -3.44e-4,0.0011 -0.0019,0.0014 -0.0019,0.0021 -0.09679,0.234217 0.05826,1.259164 -0.03946,1.3843 -0.0042,0.0052 -0.01001,0.01243 -0.01754,0.01766 l 0.03946,0.0265 c 0.790329,0.236715 0.09857,-1.427744 0.07889,-1.474818 -0.0037,-6.98e-4 -0.0074,-0.0025 -0.01094,-0.0021 z"
       id="path4480-14"
       style="opacity:0.5;fill:#9d0f06;fill-opacity:1;stroke:none"
       inkscape:connector-curvature="0" />
    <path
       d="m -11.173057,14.062993 c -0.166344,0.0015 -0.262602,0.0094 -0.262602,0.0094 l 0,0.0022 0,0.0378 c 0.09756,0.179325 1.390369,0.384497 1.4982481,0.529129 0.108053,0.144867 -0.1696001,1.430665 0.0094,1.481083 0.185362,0.05222 0.828383,-1.137887 1.012899,-1.192899 0.177047,-0.05278 1.360914,0.586923 1.479492,0.451177 l -0.002,-0.0022 c -0.998292,-1.223773 -3.0143811,-1.321804 -3.7351931,-1.315689 z"
       id="path4517-2"
       style="opacity:0.75;fill:url(#linearGradient3277);fill-opacity:1;stroke:none"
       inkscape:connector-curvature="0" />
  </g>
  <rect
     x="1.5"
     y="3.5"
     width="20"
     height="18"
     ry="1.5"
     rx="1.5"
     style="color:#000000"
     id="rect5505-21-3-2"
     stroke="url(#linearGradient3847)"
     fill="none"
     opacity=".8" />
  <path
     sodipodi:type="star"
     style="fill:#f5f800;fill-opacity:1;stroke:#ff0f0f;stroke-width:1.25;stroke-miterlimit:4;stroke-dasharray:none;stroke-opacity:0.61057693"
     id="path5366"
     sodipodi:sides="5"
     sodipodi:cx="16.322033"
     sodipodi:cy="9.3559321"
     sodipodi:r1="4.329505"
     sodipodi:r2="2.1647525"
     sodipodi:arg1="0.58474529"
     sodipodi:arg2="1.2130638"
     inkscape:flatsided="false"
     inkscape:rounded="0"
     inkscape:randomized="0"
     d="m 19.932202,11.745763 -2.852178,-0.362122 -1.915251,2.144265 -0.536974,-2.824485 -2.631162,-1.1588979 2.520311,-1.3835061 0.289104,-2.8605026 2.094611,1.9694311 2.809838,-0.6089902 -1.22577,2.6006815 z"
     inkscape:transform-center-x="0.35761305"
     inkscape:transform-center-y="0.058277789" />
</svg>
